<svg xmlns="http://www.w3.org/2000/svg" viewBox="-15.8 -16.1 64 64"><path d="M-15 6.3V3.5H.4v2.8H-15zm0 6.1V9.6H.4v2.8H-15zm31.4-3L1.8 16v-3.2L13 8 2 3.3V0l14.4 6.6v2.8z"/><path d="M45.8 33.5h1.6c0 4.4-.6 7.6-2 9.6s-3.2 3-5.6 3a8 8 0 0 1-5.2-2c-1.6-1.4-3-4.8-4.2-10.6L26.8 17 14.2 45.5h-8l18-38.6c-1-5.2-2-8.8-3.4-11.2-1.2-2.4-3-3.6-5-3.6-1.6 0-3 .6-4.2 1.8s-2 3-2 5.6H8c0-4 1-7.4 2.6-10 1.4-2.4 3.4-3.6 5.8-3.6a6 6 0 0 1 4.4 2C22-11 23.2-9 24.2-6s2.6 9.4 4.6 18.8l3 13.2c1.2 5.6 2.4 9.2 4 11.2 1.2 2 2.8 2.8 4.6 2.8 3.2 0 5-2.3 5.4-6.6z"/></svg>